<svg xmlns="http://www.w3.org/2000/svg" version="1.1" xmlns:xlink="http://www.w3.org/1999/xlink" xmlns:svgjs="http://svgjs.dev/svgjs" width="304" height="308" viewBox="0 0 1000 623"><g transform="matrix(1,0,0,1,-0.6060606060606233,0.2522267206477409)"><svg viewBox="0 0 396 247" data-background-color="#ffffff" preserveAspectRatio="xMidYMid meet" height="623" width="1000" xmlns="http://www.w3.org/2000/svg" xmlns:xlink="http://www.w3.org/1999/xlink"><g id="tight-bounds" transform="matrix(1,0,0,1,0.2400000000000091,-0.09999999999999432)"><svg viewBox="0 0 395.52 247.2" height="247.2" width="395.52"><g><svg></svg></g><g><svg viewBox="0 0 395.52 247.2" height="247.2" width="395.52"><g transform="matrix(1,0,0,1,132.30114240456203,47.215199999999996)"><svg viewBox="0 0 130.91771519087595 152.7696" height="152.7696" width="130.91771519087595"><g><svg viewBox="0 0 130.91771519087595 152.7696" height="152.7696" width="130.91771519087595"><g><svg viewBox="0 0 130.91771519087595 152.7696" height="152.7696" width="130.91771519087595"><g><svg viewBox="0 0 130.91771519087595 152.7696" height="152.7696" width="130.91771519087595"><g id="textblocktransform"><svg viewBox="0 0 130.91771519087595 152.7696" height="152.7696" width="130.91771519087595" id="textblock"><g><svg viewBox="0 0 130.91771519087595 152.7696" height="152.7696" width="130.91771519087595"><g transform="matrix(1,0,0,1,0,0)"><svg width="130.91771519087595" viewBox="0.49000000953674316 -51.883636474609375 52.82999801635742 61.65363693237305" height="152.7696" data-palette-color="#636365"><path d="M53.32-28.66L53.32-28.66Q53.32-27.88 53.05-27.05 52.78-26.22 52.39-25.54L52.39-25.54Q51.76-25.44 51.25-25.1 50.73-24.76 50.44-24.66L50.44-24.66Q49.8-24.56 48.95-24.58 48.1-24.61 47.41-24.56L47.41-24.56Q46.09-24.46 44.8-24.27 43.51-24.07 42.24-23.78L42.24-23.78Q42.14-23.78 42.04-23.75 41.94-23.73 41.94-23.63L41.94-23.63Q41.94-23.54 41.99-23.44 42.04-23.34 42.04-23.24L42.04-23.24Q42.04-23.1 41.75-23.1L41.75-23.1Q41.21-23.1 41.02-23.44L41.02-23.44Q39.45-23.05 37.89-22.63 36.33-22.22 34.77-21.83L34.77-21.83Q33.98-21.68 33.23-21.53 32.47-21.39 31.69-21.14L31.69-21.14Q31.3-21.04 30.91-20.8L30.91-20.8 30.13-20.31Q29.88-20.36 29.69-20.39 29.49-20.41 29.3-20.41L29.3-20.41Q28.47-20.41 27.54-20.09 26.61-19.78 25.93-19.24L25.93-19.24 25.59-19.24Q25.1-19.24 24.9-19.38L24.9-19.38Q24.46-19.43 24.37-19.12 24.27-18.8 24.02-18.55L24.02-18.55Q22.36-18.41 20.75-17.97 19.14-17.53 17.58-17.02 16.02-16.5 14.43-15.99 12.84-15.48 11.23-15.19L11.23-15.19Q11.04-14.21 11.04-12.94L11.04-12.94Q11.04-11.96 11.21-10.69 11.38-9.42 11.96-8.54L11.96-8.54 11.96-8.45Q11.96-8.2 11.77-8.11 11.57-8.01 11.57-7.76L11.57-7.76Q11.57-6.49 11.84-5.37 12.11-4.25 12.4-3.17 12.7-2.1 12.96-1.03 13.23 0.05 13.23 1.17L13.23 1.17Q13.23 1.46 13.21 1.73 13.18 2 13.13 2.29L13.13 2.29Q13.28 2.73 13.62 3.03 13.96 3.32 14.21 3.71L14.21 3.71Q14.26 3.96 14.26 4.15L14.26 4.15 14.26 4.64Q14.26 5.47 14.06 6.1 13.87 6.74 13.57 7.3 13.28 7.86 12.94 8.42 12.6 8.98 12.3 9.67L12.3 9.67Q11.82 9.77 11.52 9.77L11.52 9.77Q10.79 9.77 10.33 9.38 9.86 8.98 9.52 8.42 9.18 7.86 8.86 7.28 8.54 6.69 8.11 6.3L8.11 6.3Q8.15 6.05 8.18 5.86 8.2 5.66 8.2 5.42L8.2 5.42Q8.2 4.44 7.89 3.52 7.57 2.59 7.18 1.76L7.18 1.76Q7.13 0.1 6.84-1.51 6.54-3.13 6.01-4.69L6.01-4.69Q6.1-5.27 6.15-5.83 6.2-6.4 6.2-6.93L6.2-6.93Q6.2-8.35 6.05-9.77 5.91-11.18 6.01-12.6L6.01-12.6Q5.86-12.84 5.71-13.01 5.57-13.18 5.47-13.43L5.47-13.43 5.27-13.43Q4.54-13.43 3.86-13.31 3.17-13.18 2.49-13.18L2.49-13.18Q2.25-13.18 2.05-13.21 1.86-13.23 1.61-13.28L1.61-13.28Q1.07-13.82 0.78-14.5 0.49-15.19 0.49-15.92L0.49-15.92Q0.49-16.99 1.07-17.87L1.07-17.87Q2.29-18.16 3.49-18.58 4.69-18.99 5.81-19.58L5.81-19.58Q5.96-20.31 5.98-21.04 6.01-21.78 6.49-22.41L6.49-22.41Q6.35-22.8 6.03-23.12 5.71-23.44 5.71-23.88L5.71-23.88Q5.71-24.12 5.81-24.51L5.81-24.51Q6.3-25.05 6.49-25.88 6.69-26.71 6.84-27.64 6.98-28.56 7.15-29.49 7.32-30.42 7.76-31.15L7.76-31.15Q7.67-31.54 7.62-32.01 7.57-32.47 7.57-32.86L7.57-32.86Q7.57-33.45 7.64-34.06 7.71-34.67 7.91-35.21L7.91-35.21Q7.37-35.84 7.03-36.69 6.69-37.55 6.69-38.38L6.69-38.38Q6.69-39.99 8.25-40.43L8.25-40.43Q8.2-40.63 8.18-40.77 8.15-40.92 8.15-41.06L8.15-41.06Q8.15-41.5 8.4-41.89 8.64-42.29 8.79-42.68L8.79-42.68Q8.54-43.31 8.54-43.75L8.54-43.75Q8.54-44.14 8.69-44.46 8.84-44.78 8.94-45.17L8.94-45.17Q9.08-45.65 9.16-46.04 9.23-46.44 9.42-46.73 9.62-47.02 9.94-47.17 10.25-47.31 10.94-47.31L10.94-47.31Q12.01-47.31 13.01-46.66 14.01-46 14.55-45.17L14.55-45.17Q15.09-45.21 15.5-45.39 15.92-45.56 16.28-45.7 16.65-45.85 17.07-45.97 17.48-46.09 18.07-46.04L18.07-46.04Q18.21-46.39 18.58-46.51 18.95-46.63 19.34-46.7 19.73-46.78 20.07-46.92 20.41-47.07 20.51-47.46L20.51-47.46Q20.7-47.31 20.95-47.31L20.95-47.31Q21.19-47.31 21.44-47.39 21.68-47.46 21.97-47.46L21.97-47.46Q22.27-47.46 22.46-47.27L22.46-47.27Q23.73-47.95 25.17-48.27 26.61-48.58 28.03-48.63L28.03-48.63Q31.4-50.49 35.13-51.17 38.87-51.86 42.63-51.86L42.63-51.86Q43.16-51.86 43.68-51.88 44.19-51.9 44.68-51.81L44.68-51.81Q45.21-51.71 45.87-51.46 46.53-51.22 47.19-50.88 47.85-50.54 48.44-50.12 49.02-49.71 49.41-49.37L49.41-49.37Q49.8-48.49 49.8-47.66L49.8-47.66Q49.8-47.27 49.76-46.9 49.71-46.53 49.71-46.14L49.71-46.14Q49.71-45.56 49.95-44.82L49.95-44.82Q49.8-44.87 49.46-44.87L49.46-44.87Q49.02-44.87 48.73-44.68 48.44-44.48 48.19-44.24 47.95-43.99 47.73-43.8 47.51-43.6 47.31-43.6L47.31-43.6Q46.92-43.6 46.66-43.75 46.39-43.9 46.12-44.07 45.85-44.24 45.56-44.36 45.26-44.48 44.87-44.43L44.87-44.43 44.87-44.63Q44.87-45.17 44.53-45.34 44.19-45.51 43.99-45.85L43.99-45.85Q43.26-45.9 42.55-46.04 41.85-46.19 41.11-46.19L41.11-46.19Q40.14-46.19 39.6-45.51L39.6-45.51Q39.36-45.61 39.18-45.75 39.01-45.9 38.72-45.85L38.72-45.85 38.57-45.85Q35.94-45.85 33.4-45.29 30.86-44.73 28.37-43.92 25.88-43.12 23.39-42.19 20.9-41.26 18.41-40.58L18.41-40.58Q17.82-39.79 17.19-39.43 16.55-39.06 15.94-38.82 15.33-38.57 14.75-38.33 14.16-38.09 13.75-37.55 13.33-37.01 13.11-36.06 12.89-35.11 12.99-33.45L12.99-33.45Q12.74-33.15 12.7-32.81 12.65-32.47 12.6-32.15 12.55-31.84 12.45-31.54 12.35-31.25 12.11-31.01L12.11-31.01Q12.21-30.52 12.26-30.03 12.3-29.54 12.3-29.05L12.3-29.05Q12.3-27 11.62-25.05L11.62-25.05Q11.87-24.66 11.87-24.17L11.87-24.17Q11.87-23.63 11.72-23.19 11.57-22.75 11.57-22.22L11.57-22.22Q11.57-21.68 11.77-21.34L11.77-21.34Q12.06-21.34 12.11-21.14L12.11-21.14 12.4-21.14Q13.28-21.14 13.92-21.58 14.55-22.02 15.28-22.02L15.28-22.02Q15.43-22.02 15.63-21.92 15.82-21.83 15.97-21.83L15.97-21.83Q16.31-21.83 16.26-22.07 16.21-22.31 16.5-22.41L16.5-22.41 18.26-22.71Q19.92-23 21.41-23.41 22.9-23.83 24.37-24.66L24.37-24.66Q24.71-24.51 25.15-24.51L25.15-24.51Q25.54-24.51 25.98-24.63 26.42-24.76 26.81-24.76L26.81-24.76Q27.15-24.76 27.34-24.66L27.34-24.66Q27.64-24.85 28.08-24.98 28.52-25.1 28.56-25.54L28.56-25.54 28.66-25.54Q28.86-25.54 28.96-25.44 29.05-25.34 29.25-25.34L29.25-25.34 29.44-25.34Q30.47-25.83 31.3-26.07L31.3-26.07Q32.67-26.42 34.23-26.68 35.79-26.95 37.01-27.64L37.01-27.64Q38.43-27.64 39.77-28.1 41.11-28.56 42.48-28.56L42.48-28.56Q43.12-28.56 43.65-28.37L43.65-28.37Q44.14-28.71 44.8-28.86 45.46-29 45.9-29.39L45.9-29.39Q46.19-29.35 46.51-29.32 46.83-29.3 47.17-29.3L47.17-29.3Q48.63-29.3 49.98-29.71 51.32-30.13 52.73-30.32L52.73-30.32Q53.08-29.93 53.2-29.52 53.32-29.1 53.32-28.66Z" opacity="1" transform="matrix(1,0,0,1,0,0)" fill="#636365" class="undefined-text-0" data-fill-palette-color="primary" id="text-0"></path></svg></g></svg></g></svg></g></svg></g></svg></g></svg></g></svg></g><path d="M80.918 41.215L80.918 0 328.118 0 328.118 247.2 80.918 247.2 80.918 205.985 94.694 205.985 94.694 233.423 314.341 233.423 314.341 13.777 94.694 13.777 94.694 41.215Z" fill="#636365" stroke="transparent" data-fill-palette-color="primary"></path></svg></g><defs></defs></svg><rect width="395.52" height="247.2" fill="none" stroke="none" visibility="hidden"></rect></g></svg></g></svg>